# xmcd CD database file
#
# Track frame offsets:
#	183
#	14108
#	32550
#	51335
#	74813
#	97353
#	121095
#	138798
#	155400
#	172503
#
# Disc length: 2593 seconds
#
# Revision: 0
# Processed by: cddbd v1.4PL0 Copyright (c) Steve Scherf et al.
# Submitted via: CDex 1.50beta8
#
DISCID=870a1f0a
DTITLE=The James Cotton Band - High Energy
DYEAR=1975
DGENRE=Blues
TTITLE0=Hot'N'Cold
TTITLE1=Chicken Heads
TTITLE2=Hard Time Blues
TTITLE3=I Got A Feeling
TTITLE4=Weather Report (The Weather Man Said)
TTITLE5=Rock'N'Roll Music (Ain't Nothing New)
TTITLE6=Fannie Mae
TTITLE7=Caldonia
TTITLE8=James' Theme
TTITLE9=Keep Cooking Mama
EXTD=YEAR: 1975
EXTT0=
EXTT1=
EXTT2=
EXTT3=
EXTT4=
EXTT5=
EXTT6=
EXTT7=
EXTT8=
EXTT9=
PLAYORDER=
